<svg width="38" height="38" viewBox="0 0 38 38" fill="none" xmlns="http://www.w3.org/2000/svg">
<circle cx="19" cy="19" r="19" fill="#D3FF6A"/>
<path d="M24.6259 11.7066C25.406 10.777 26.7919 10.6557 27.7215 11.4357C28.6512 12.2158 28.7724 13.6017 27.9924 14.5313L18.1057 26.3138C17.3257 27.2435 15.9397 27.3647 15.0101 26.5847C14.0805 25.8046 13.9592 24.4187 14.7393 23.4891L24.6259 11.7066Z" fill="#1B1B1B"/>
<path d="M9.5 19.4247C9.5 18.2112 10.4838 17.2274 11.6973 17.2274C12.9108 17.2274 15.9066 22.0979 17.1905 23.4891C17.1905 24.7026 16.756 26.9155 15.5425 26.9155C14.329 26.9155 9.5 20.6382 9.5 19.4247Z" fill="#1B1B1B"/>
</svg>
