<svg width="15" height="13" viewBox="0 0 15 13" fill="none" xmlns="http://www.w3.org/2000/svg">
<path d="M14.5002 6.50016C14.5002 6.73223 14.408 6.95479 14.2439 7.11888C14.0798 7.28298 13.8573 7.37516 13.6252 7.37516H3.48394L7.24644 11.1289C7.41121 11.2937 7.50377 11.5171 7.50377 11.7502C7.50377 11.9832 7.41121 12.2066 7.24644 12.3714C7.08168 12.5362 6.8582 12.6287 6.62519 12.6287C6.39218 12.6287 6.16871 12.5362 6.00394 12.3714L0.753941 7.12141C0.671928 7.04007 0.606834 6.94329 0.562411 6.83667C0.517988 6.73004 0.495117 6.61567 0.495117 6.50016C0.495117 6.38465 0.517988 6.27028 0.562411 6.16366C0.606834 6.05703 0.671928 5.96026 0.753941 5.87891L6.00394 0.628912C6.08552 0.547329 6.18238 0.482613 6.28897 0.43846C6.39557 0.394307 6.50981 0.371582 6.62519 0.371582C6.74057 0.371582 6.85482 0.394307 6.96141 0.43846C7.068 0.482613 7.16486 0.547329 7.24644 0.628912C7.32802 0.710496 7.39274 0.80735 7.43689 0.913944C7.48105 1.02054 7.50377 1.13479 7.50377 1.25016C7.50377 1.36554 7.48105 1.47979 7.43689 1.58638C7.39274 1.69297 7.32802 1.78983 7.24644 1.87141L3.48394 5.62516H13.6252C13.8573 5.62516 14.0798 5.71735 14.2439 5.88144C14.408 6.04554 14.5002 6.2681 14.5002 6.50016Z" fill="#9B9B9B"/>
</svg>
